HIERARCHY
ROOT Hips
{
	OFFSET 0.0000 0.0000 0.0000
	CHANNELS 6 Xposition Yposition Zposition Zrotation Xrotation Yrotation
	JOINT Ab
	{
		OFFSET -0.0000 8.0846 -0.0000
		CHANNELS 3 Zrotation Xrotation Yrotation
		JOINT Chest
		{
			OFFSET -0.0000 25.7002 -0.0000
			CHANNELS 3 Zrotation Xrotation Yrotation
			JOINT Neck
			{
				OFFSET -0.0000 25.7002 0.0000
				CHANNELS 3 Zrotation Xrotation Yrotation
				JOINT Head
				{
					OFFSET -0.0000 10.7556 0.0000
					CHANNELS 3 Zrotation Xrotation Yrotation
					End Site
					{
						OFFSET -0.0000 16.6222 0.0000
					}
				}
			}
			JOINT LeftCollar
			{
				OFFSET -0.0000 25.7002 0.0000
				CHANNELS 3 Zrotation Xrotation Yrotation
				JOINT LeftShoulder
				{
					OFFSET 19.5556 -0.0000 0.0000
					CHANNELS 3 Zrotation Xrotation Yrotation
					JOINT LeftElbow
					{
						OFFSET 27.2833 0.0000 0.0000
						CHANNELS 3 Zrotation Xrotation Yrotation
						JOINT LeftWrist
						{
							OFFSET 23.7914 0.0000 0.0000
							CHANNELS 3 Zrotation Xrotation Yrotation
							End Site
							{
								OFFSET 0.0000 -14.6667 0.0000
							}
						}
					}
				}
			}
			JOINT RightCollar
			{
				OFFSET -0.0000 25.7002 0.0000
				CHANNELS 3 Zrotation Xrotation Yrotation
				JOINT RightShoulder
				{
					OFFSET -19.5556 0.0000 0.0000
					CHANNELS 3 Zrotation Xrotation Yrotation
					JOINT RightElbow
					{
						OFFSET -27.2833 0.0000 0.0000
						CHANNELS 3 Zrotation Xrotation Yrotation
						JOINT RightWrist
						{
							OFFSET -23.7914 0.0000 0.0000
							CHANNELS 3 Zrotation Xrotation Yrotation
							End Site
							{
								OFFSET -0.0000 -14.6667 0.0000
							}
						}
					}
				}
			}
		}
	}
	JOINT LeftHip
	{
		OFFSET 11.7333 0.0000 0.0000
		CHANNELS 3 Zrotation Xrotation Yrotation
		JOINT LeftKnee
		{
			OFFSET -0.0000 -39.5330 0.0000
			CHANNELS 3 Zrotation Xrotation Yrotation
			JOINT LeftAnkle
			{
				OFFSET -0.0000 -43.0504 0.0000
				CHANNELS 3 Zrotation Xrotation Yrotation
				End Site
				{
					OFFSET -0.0000 -4.8889 16.6222
				}
			}
		}
	}
	JOINT RightHip
	{
		OFFSET -11.7333 0.0000 0.0000
		CHANNELS 3 Zrotation Xrotation Yrotation
		JOINT RightKnee
		{
			OFFSET -0.0000 -39.5330 0.0000
			CHANNELS 3 Zrotation Xrotation Yrotation
			JOINT RightAnkle
			{
				OFFSET -0.0000 -43.0504 0.0000
				CHANNELS 3 Zrotation Xrotation Yrotation
				End Site
				{
					OFFSET -0.0000 -4.8889 16.6222
				}
			}
		}
	}
}
MOTION
Frames: 8
Frame Time: 0.010000
-1.7321 85.6564 156.5952 3.5743 353.5005 182.0330 1.9363 10.2486 354.1508 3.3895 8.6341 354.0685 6.7827 342.0178 5.4720 353.8642 12.6963 5.0947 336.1563 356.2012 17.7272 15.1285 62.8363 284.8564 67.6259 340.7817 331.5863 85.8996 351.4470 29.3365 18.6410 358.0687 348.3473 66.9056 34.3998 348.9898 348.3739 356.4119 33.6526 277.5613 347.5164 36.4877 5.3366 2.9431 355.9311 355.6216 29.6709 356.5338 338.4121 343.2698 16.3770 2.6124 323.9705 4.3532 4.2650 39.5889 358.6933 358.7016 340.4334 336.7168 
-1.5440 85.3222 155.5884 3.5445 353.7364 182.0801 2.0798 10.5144 354.1658 3.6837 8.7266 354.0757 7.1006 341.7102 5.7452 353.1008 12.5975 5.3806 335.9456 356.1038 18.1048 15.4043 63.0026 284.7018 67.6522 340.6294 331.2767 86.5056 351.8940 29.7928 18.5456 358.0682 348.2863 66.9570 34.7725 349.4455 347.8528 356.1949 33.8271 276.9148 347.5565 35.7388 5.5256 2.3131 355.4918 354.9687 32.4831 357.0467 338.0155 343.3587 16.2443 2.4854 323.8924 3.5414 4.3159 41.3297 359.4938 358.4957 339.4148 336.1907 
-1.3072 85.0050 154.6206 3.6850 353.8751 182.2441 2.5672 10.7613 354.1030 3.7999 8.6399 354.0580 7.0892 341.6585 5.9374 352.8196 12.1829 5.5779 335.8769 356.0519 18.2354 14.2688 63.3467 285.8561 67.6135 340.4019 330.7865 86.5485 351.8994 29.9392 18.6060 358.0907 348.2971 66.8516 34.9440 349.9126 347.4637 356.0650 33.8530 276.2404 347.2731 34.6179 5.5459 2.8684 359.2954 358.1151 32.8321 354.7258 339.1258 346.9578 14.9003 2.4675 323.7674 2.9875 4.6837 42.7608 359.1639 359.1780 338.5412 336.0257 
-1.0594 84.6496 153.6504 3.7453 353.9739 182.0581 2.8538 10.9568 354.1973 3.9086 8.6718 354.1754 7.2219 341.4958 6.2730 352.4881 11.8320 5.9035 335.9329 356.0343 18.4588 12.0530 63.7142 287.8736 67.3356 340.1076 329.9832 87.0311 352.2692 29.9839 18.7281 358.0941 348.4597 66.6008 35.3533 350.5532 347.0179 355.9089 34.0128 275.0692 347.3006 33.5309 5.9476 1.6854 359.4690 357.4268 36.4423 355.4957 341.2182 347.7900 15.4425 2.5658 323.5279 2.5754 4.8754 44.3447 359.4961 358.9427 337.9712 336.1159 
-0.7247 84.3082 152.8841 4.1125 353.4585 182.3705 3.2105 10.7819 354.2092 4.4532 8.4902 354.1821 7.2800 340.9817 6.4710 352.2182 11.8284 6.0756 335.8144 356.0157 18.4853 11.2057 64.2347 288.7817 67.3656 339.7425 329.5882 86.4265 352.2515 29.5549 18.7616 358.0671 348.4406 66.4993 35.6938 351.2438 346.2343 355.5841 34.1717 274.3570 347.2134 32.2888 7.1299 357.5352 355.5648 352.0294 43.4428 0.5760 342.8362 347.6281 16.4720 2.7523 322.6417 1.7092 5.0253 46.0270 359.6470 358.8398 337.5169 335.8507 
-0.4748 83.9643 151.8530 4.3993 353.8262 182.2277 3.5273 11.1219 354.4440 4.7739 8.7859 354.4218 7.6994 340.6870 6.7570 351.5408 11.4877 6.3130 335.7614 355.8667 19.6218 18.5058 65.1514 281.6476 69.0604 339.9878 332.5407 86.1631 351.3870 30.2201 18.8314 358.0815 348.6552 66.2666 35.9627 352.1149 345.6317 355.3827 34.2657 273.1918 347.1622 31.0554 7.7357 356.6577 356.3823 351.2718 46.7372 2.2349 343.3260 349.7215 16.9229 3.0297 322.9661 1.2429 5.3532 47.3886 359.7046 358.3068 336.8243 336.0711 
-0.2443 83.5867 150.6780 4.5885 354.5163 182.0692 3.6891 11.5134 354.7231 5.1946 9.3924 354.6695 8.1135 340.1754 6.9362 350.7411 11.4041 6.4473 335.6589 355.7790 19.4374 16.7690 65.8392 283.4431 68.8598 340.3341 331.9061 87.0103 352.3563 31.5214 18.8983 358.1132 348.7253 66.0035 36.0549 353.1030 344.9095 355.0948 34.6990 271.7307 348.5034 29.9610 8.2735 355.9611 356.6396 350.2616 50.2001 3.4452 346.7903 352.2634 17.7491 3.1763 323.8511 0.7909 5.7151 48.5272 359.9585 358.0247 335.9926 335.5835 
0.0370 83.2356 149.6471 4.6761 354.6544 181.7412 3.5491 11.5658 355.1387 5.6873 9.7723 355.0127 8.7463 340.0452 7.3657 349.7643 11.2676 6.8616 335.6166 355.8005 19.3015 14.3968 66.4415 285.7755 68.1844 340.4399 331.1501 87.8847 352.9424 32.1885 19.0335 358.1269 348.9435 65.7592 36.1828 354.0074 343.8479 354.6584 34.8585 272.0328 347.7494 28.7179 8.7741 354.5320 357.1436 348.7737 53.9941 4.9424 347.4847 354.2617 18.4439 3.4837 324.0894 0.8003 6.0605 49.6851 359.9612 357.2577 335.1785 335.4123 
